<?xml version="1.0" encoding="UTF-8" standalone="no"?>
<svg
   xmlns:dc="http://purl.org/dc/elements/1.1/"
   xmlns:cc="http://creativecommons.org/ns#"
   xmlns:rdf="http://www.w3.org/1999/02/22-rdf-syntax-ns#"
   xmlns:svg="http://www.w3.org/2000/svg"
   xmlns="http://www.w3.org/2000/svg"
   viewBox="0 0 2229.9468 1122.52"
   height="1122.52"
   width="2229.9468"
   xml:space="preserve"
   id="svg2"
   version="1.1"><metadata
     id="metadata8"><rdf:RDF><cc:Work
         rdf:about=""><dc:format>image/svg+xml</dc:format><dc:type
           rdf:resource="http://purl.org/dc/dcmitype/StillImage" /></cc:Work></rdf:RDF></metadata><defs
     id="defs6"><clipPath
       id="clipPath18"
       clipPathUnits="userSpaceOnUse"><path
         id="path16"
         d="M 0,841.89 H 1672.463 V 0 H 0 Z" /></clipPath></defs><g
     transform="matrix(1.3333333,0,0,-1.3333333,0,1122.52)"
     id="g10"><g
       id="g12"><g
         clip-path="url(#clipPath18)"
         id="g14"><g
           transform="translate(701.8765,615.7031)"
           id="g20"><path
             id="path22"
             style="fill:#5dc4e6;fill-opacity:1;fill-rule:nonzero;stroke:#2b2b2a;stroke-width:4.2329998;stroke-linecap:butt;stroke-linejoin:miter;stroke-miterlimit:10;stroke-dasharray:none;stroke-opacity:1"
             d="m 0,0 c 59.272,0 107.235,-58.079 107.235,-129.854 0,-64.45 -47.963,-116.601 -107.235,-116.601 h 9.335 c -59.273,0 -107.234,52.151 -107.234,116.601 C -97.899,-58.079 -49.938,0 9.335,0" /></g><g
           transform="translate(705.0459,567.5806)"
           id="g24"><path
             id="path26"
             style="fill:#ffffff;fill-opacity:1;fill-rule:nonzero;stroke:#2b2b2a;stroke-width:4.2329998;stroke-linecap:butt;stroke-linejoin:miter;stroke-miterlimit:10;stroke-dasharray:none;stroke-opacity:1"
             d="m 0,0 c 39.755,0 71.923,-36.219 71.923,-80.979 0,-40.192 -32.168,-72.714 -71.923,-72.714 h 6.261 c -39.755,0 -71.923,32.522 -71.923,72.714 0,44.76 32.168,80.979 71.923,80.979" /></g><g
           transform="translate(861.1499,383.0654)"
           id="g28"><path
             id="path30"
             style="fill:#5dc4e6;fill-opacity:1;fill-rule:nonzero;stroke:#2b2b2a;stroke-width:3.83899999;stroke-linecap:butt;stroke-linejoin:miter;stroke-miterlimit:10;stroke-dasharray:none;stroke-opacity:1"
             d="m 0,0 -0.003,208.518 c 0,13.331 -9.002,24.12 -20.129,24.12 -11.123,0 -20.127,-10.789 -20.127,-24.12 V 4.444 7.232 c 0,-13.332 9.004,-24.12 20.13,-24.12 C -9.005,-16.888 0,-6.1 0,7.232" /></g><g
           transform="translate(454.6943,749.313)"
           id="g32"><path
             id="path34"
             style="fill:#5dc4e6;fill-opacity:1;fill-rule:nonzero;stroke:#2b2b2a;stroke-width:4.18900013;stroke-linecap:butt;stroke-linejoin:miter;stroke-miterlimit:10;stroke-dasharray:none;stroke-opacity:1"
             d="m 0,0 v -346.316 c 0,-18.373 7.714,-33.238 17.247,-33.238 9.533,0 17.246,14.865 17.246,33.238 0,66.351 21.385,132.919 42.86,132.919 18.163,0 28.851,-66.568 28.851,-132.919 0,-18.373 7.714,-33.238 17.247,-33.238 9.533,0 17.246,14.865 17.246,33.238 0,159.351 -34.35,208.446 -52.349,211.611 l -7.85,1.381 c -21.475,0 -46.005,-57.796 -46.005,-75.697 V -6.688 c 0,18.371 -7.713,33.237 -17.246,33.237" /></g><g
           transform="translate(454.6943,747.2676)"
           id="g36"><path
             id="path38"
             style="fill:none;stroke:#2b2b2a;stroke-width:4.42199993;stroke-linecap:butt;stroke-linejoin:miter;stroke-miterlimit:10;stroke-dasharray:none;stroke-opacity:1"
             d="M 0,0 19.222,26.55" /></g><g
           transform="translate(444.145,598.29)"
           id="g40"><path
             id="path42"
             style="fill:#5dc4e6;fill-opacity:1;fill-rule:nonzero;stroke:#2b2b2a;stroke-width:4.10200024;stroke-linecap:butt;stroke-linejoin:miter;stroke-miterlimit:10;stroke-dasharray:none;stroke-opacity:1"
             d="m 0,0 c 0,10.77 -10.493,19.483 -23.46,19.483 -76.181,0 -137.826,-54.467 -137.826,-121.777 v -0.291 c 0,-67.31 61.645,-121.776 137.826,-121.776 12.967,0 23.46,8.713 23.46,19.483 l -23.46,17.884 c -56.398,0 -102.036,37.525 -102.036,83.897 0,46.815 45.638,84.699 102.036,84.699" /></g><g
           transform="translate(444.145,598.29)"
           id="g44"><path
             id="path46"
             style="fill:#5dc4e6;fill-opacity:1;fill-rule:nonzero;stroke:#2b2b2a;stroke-width:4.10200024;stroke-linecap:butt;stroke-linejoin:miter;stroke-miterlimit:10;stroke-dasharray:none;stroke-opacity:1"
             d="M 0,0 C 0,-10.17 -10.493,-18.398 -23.46,-18.398" /></g><g
           transform="translate(1035.4478,596.1196)"
           id="g48"><path
             id="path50"
             style="fill:#5dc4e6;fill-opacity:1;fill-rule:nonzero;stroke:#2b2b2a;stroke-width:4.13500023;stroke-linecap:butt;stroke-linejoin:miter;stroke-miterlimit:10;stroke-dasharray:none;stroke-opacity:1"
             d="m 0,0 c 0,10.983 -10.456,19.869 -23.376,19.869 -75.905,0 -137.328,-55.548 -137.328,-124.195 v -0.295 c 0,-68.646 61.423,-124.195 137.328,-124.195 12.92,0 23.376,8.888 23.376,19.871 l -23.376,18.239 c -56.195,0 -101.668,38.27 -101.668,85.56 0,47.747 45.473,86.382 101.668,86.382" /></g><g
           transform="translate(1035.4478,596.1196)"
           id="g52"><path
             id="path54"
             style="fill:#5dc4e6;fill-opacity:1;fill-rule:nonzero;stroke:#2b2b2a;stroke-width:4.13500023;stroke-linecap:butt;stroke-linejoin:miter;stroke-miterlimit:10;stroke-dasharray:none;stroke-opacity:1"
             d="M 0,0 C 0,-10.372 -10.456,-18.764 -23.376,-18.764" /></g><g
           transform="translate(1116.271,367.6631)"
           id="g56"><path
             id="path58"
             style="fill:#5dc4e6;fill-opacity:1;fill-rule:nonzero;stroke:#2b2b2a;stroke-width:4.44299984;stroke-linecap:butt;stroke-linejoin:miter;stroke-miterlimit:10;stroke-dasharray:none;stroke-opacity:1"
             d="M 0,0 C 61.816,0 84.18,19.509 84.18,46.824 -43.856,11.086 -53.554,103.144 -45.498,123.926 H 69.395 c 0,90.135 -36.405,124.114 -63.483,124.114 -83.345,0 -87.492,-114.506 -87.492,-124.114 0,-68.604 28.115,-124.114 87.492,-124.114" /></g><g
           transform="translate(1149.2241,526.3696)"
           id="g60"><path
             id="path62"
             style="fill:#ffffff;fill-opacity:1;fill-rule:nonzero;stroke:#2b2b2a;stroke-width:5.27699995;stroke-linecap:butt;stroke-linejoin:miter;stroke-miterlimit:10;stroke-dasharray:none;stroke-opacity:1"
             d="m 0,0 c -7.532,22.105 -17.48,44.211 -31.086,44.211 h 1.557 C -45.284,44.211 -58.036,19.408 -63.306,0 H -2.43" /></g><g
           transform="translate(775.1948,605.728)"
           id="g64"><path
             id="path66"
             style="fill:#ffee00;fill-opacity:1;fill-rule:nonzero;stroke:none"
             d="m 0,0 13.878,66.209 -49.198,46.43 70.173,10.19 33.021,60.399 29.49,-59.912 69.608,-9.102 -51.947,-47.217 9.998,-66.023 -61.596,30.728 z" /></g><g
           transform="translate(775.1948,605.728)"
           id="g68"><path
             id="path70"
             style="fill:none;stroke:#2b2b2a;stroke-width:4.11000013;stroke-linecap:butt;stroke-linejoin:miter;stroke-miterlimit:10;stroke-dasharray:none;stroke-opacity:1"
             d="m 0,0 13.878,66.209 -49.198,46.43 70.173,10.19 33.021,60.399 29.49,-59.912 69.608,-9.102 -51.947,-47.217 9.998,-66.023 -61.596,30.728 z" /></g></g></g></g></svg>